<?xml version="1.0" standalone="no"?>
<!DOCTYPE svg PUBLIC "-//W3C//DTD SVG 20010904//EN"
 "http://www.w3.org/TR/2001/REC-SVG-20010904/DTD/svg10.dtd">
<svg version="1.0" xmlns="http://www.w3.org/2000/svg"
 width="600.000000pt" height="600.000000pt" viewBox="0 0 600.000000 600.000000"
 preserveAspectRatio="xMidYMid meet">
<g transform="translate(0.000000,600.000000) scale(0.050000,-0.050000)"
fill="#000000" stroke="none">
<path d="M6650 11479 c-44 -10 -104 -13 -132 -7 -31 6 -132 -16 -240 -53 -118
-39 -248 -66 -348 -73 -88 -6 -178 -21 -200 -32 -22 -11 -98 -28 -170 -36 -71
-8 -179 -29 -240 -47 -142 -43 -288 -69 -504 -90 -96 -10 -204 -27 -240 -38
-36 -11 -142 -36 -234 -56 -173 -36 -270 -95 -217 -132 16 -12 4 -15 -33 -9
-73 12 -292 -33 -366 -76 l-56 -32 100 11 c200 23 294 27 277 10 -9 -9 -56
-21 -104 -27 -48 -6 -118 -21 -156 -33 -38 -13 -86 -19 -106 -13 -21 5 -63 -8
-94 -28 -36 -24 -93 -38 -153 -38 -68 0 -123 -16 -185 -52 -115 -67 -112 -70
24 -25 63 20 118 33 123 28 5 -6 -7 -16 -28 -22 -21 -7 -83 -30 -138 -50 -55
-21 -138 -46 -183 -56 -204 -44 -766 -623 -605 -623 13 0 17 -15 9 -34 -7 -19
-17 -122 -22 -230 -4 -108 -19 -212 -32 -233 -16 -26 -17 -55 -4 -95 27 -82 5
-174 -47 -197 -70 -31 -72 -87 -4 -101 78 -18 84 -34 31 -91 -113 -124 -193
-248 -193 -301 0 -30 -10 -62 -22 -69 -12 -8 -35 -44 -50 -81 -16 -38 -37 -68
-47 -68 -22 0 -52 -107 -69 -240 -14 -119 -48 -235 -74 -251 -13 -8 -11 -24 6
-44 22 -27 20 -29 -19 -17 -35 12 -42 8 -33 -17 7 -18 36 -31 70 -31 62 0 74
-22 32 -57 -20 -16 -38 -14 -68 7 -45 31 -69 22 -53 -21 7 -17 -9 -32 -42 -41
-55 -13 -60 -62 -6 -53 87 16 30 -121 -58 -139 -20 -4 -36 -23 -34 -42 1 -21
-12 -34 -35 -34 -33 0 -43 -21 -36 -73 1 -7 -10 -20 -25 -29 -15 -9 -26 -52
-26 -97 0 -46 -9 -79 -21 -76 -41 10 -35 -35 7 -55 44 -20 60 -70 23 -70 -11
0 -20 10 -20 22 0 16 -9 15 -30 -2 -16 -13 -25 -32 -20 -40 5 -9 -21 -43 -59
-77 -43 -37 -60 -64 -45 -70 17 -7 16 -16 -6 -31 -23 -16 -6 -22 70 -23 79 -1
91 -5 56 -19 -46 -19 -113 -128 -101 -165 11 -32 -73 -115 -117 -116 -35 0
-35 -2 -4 -20 19 -11 29 -33 23 -50 -7 -18 1 -29 21 -29 40 0 41 -21 3 -71
-17 -22 -30 -55 -30 -75 -1 -19 -14 -40 -31 -47 -43 -16 -39 -69 5 -54 28 10
27 6 -5 -19 -116 -90 38 -39 280 93 33 18 79 33 102 33 23 0 66 22 96 50 70
65 101 80 226 109 57 14 115 38 129 54 41 50 131 87 211 87 189 0 486 139 486
228 0 11 24 45 54 76 29 31 43 56 31 56 -12 0 -28 -8 -34 -18 -6 -11 -39 -25
-72 -32 -33 -8 -100 -44 -149 -81 -49 -38 -112 -74 -140 -81 -27 -7 -50 -20
-50 -30 0 -10 -25 -18 -55 -18 -30 0 -81 -14 -112 -30 -77 -40 -104 -38 -104
10 0 25 13 40 35 40 20 0 36 9 36 20 0 11 -37 20 -81 20 -49 0 -76 8 -69 20 7
11 48 20 92 20 78 0 253 44 323 81 19 11 48 19 65 19 43 0 37 46 -9 75 -25 15
-44 17 -51 4 -7 -11 -21 -14 -31 -8 -11 6 -19 2 -19 -10 0 -11 -25 -21 -56
-21 -31 0 -65 -8 -75 -17 -23 -21 -269 -70 -283 -56 -13 14 131 53 195 53 27
0 71 15 96 32 45 32 218 103 287 118 84 18 225 96 190 105 -20 4 -47 0 -60
-10 -71 -55 -86 -35 -23 30 75 77 59 120 -17 49 -24 -23 -80 -46 -124 -52
l-80 -12 68 26 c38 15 92 57 120 94 39 51 44 64 18 55 -53 -20 -65 23 -12 44
25 10 38 19 29 20 -10 0 -7 15 7 31 15 18 17 30 4 30 -11 0 -24 -7 -27 -16
-11 -25 -157 -104 -193 -104 -19 0 11 27 66 58 55 32 138 100 185 150 47 51
94 92 105 92 28 0 25 -12 -12 -50 -18 -17 -28 -37 -22 -43 19 -18 55 14 75 65
13 34 28 43 52 34 27 -10 31 -5 19 25 -8 21 -8 31 0 24 13 -13 38 19 80 101
33 65 -29 60 -103 -8 -84 -77 -265 -178 -285 -159 -6 7 8 26 32 43 55 38 164
153 164 173 0 31 123 165 196 214 32 21 44 50 44 101 0 47 23 108 70 180 64
99 82 140 63 140 -4 0 -33 -40 -64 -90 -69 -110 -86 -105 -27 8 51 100 40 126
-21 48 -23 -31 -60 -78 -81 -106 -21 -27 -39 -39 -39 -26 -1 13 49 75 109 137
61 62 110 118 110 125 0 6 24 37 54 68 29 30 47 62 40 69 -7 7 -50 -27 -95
-75 l-81 -88 61 88 c87 126 75 144 -21 34 -46 -52 -87 -90 -91 -85 -9 9 111
237 133 253 25 18 64 103 52 114 -5 6 8 46 29 88 22 43 31 78 20 78 -17 0 -71
-85 -86 -135 -3 -8 -12 -13 -20 -10 -8 3 -15 -12 -15 -34 0 -21 -8 -44 -19
-50 -27 -17 -48 27 -25 55 10 13 44 83 75 154 31 72 95 180 142 240 47 61 104
134 127 164 35 46 49 51 90 36 40 -15 53 -11 71 22 28 52 136 118 194 118 25
0 45 8 45 18 0 11 34 30 75 43 95 30 138 67 55 48 -33 -8 -75 -22 -94 -32 -92
-47 -129 -18 -56 45 120 103 320 210 288 153 -8 -14 6 -5 30 20 54 56 203 125
270 125 27 0 55 9 62 20 7 11 46 20 87 20 49 0 99 18 143 50 39 29 95 50 132
50 36 0 79 14 96 31 18 17 40 26 50 20 11 -6 25 -2 32 10 20 31 -182 2 -280
-41 -171 -75 -220 -68 -126 19 68 64 14 47 -63 -20 -38 -32 -86 -59 -106 -59
-20 0 -60 -15 -88 -34 -52 -34 -52 -34 -25 10 15 24 73 66 128 93 102 50 190
116 190 142 0 7 -31 -10 -70 -40 -38 -29 -70 -44 -70 -32 0 11 76 71 170 133
234 154 234 174 1 51 -107 -57 -191 -94 -187 -81 4 12 55 48 114 79 58 31 126
75 150 97 25 23 51 42 59 42 8 0 35 22 59 50 32 36 52 45 73 31 25 -16 25 -24
-5 -56 -47 -53 -43 -79 6 -35 22 20 40 47 40 60 0 13 19 41 42 62 24 21 50 57
59 80 24 63 219 86 219 26 0 -18 -25 -23 -118 -26 -27 -1 -52 -12 -56 -25 -5
-15 22 -20 88 -16 53 4 104 8 113 8 10 1 12 14 6 29 -5 16 8 44 30 64 23 21
35 52 30 73 -18 70 70 62 250 -21 7 -3 26 8 43 25 35 35 23 111 -18 111 -16 0
-28 9 -28 20 0 11 21 20 48 20 58 0 77 -57 47 -136 -12 -34 -15 -88 -5 -135
l15 -79 18 60 c10 33 22 87 27 120 4 33 18 63 29 66 14 5 14 19 0 46 -14 26
-14 38 0 38 12 0 21 -10 21 -22 0 -13 18 -18 40 -12 22 6 40 2 40 -8 0 -10 17
-18 38 -18 20 0 48 -13 62 -30 14 -16 38 -30 55 -30 24 0 27 -16 17 -80 -17
-111 59 -121 79 -10 8 43 25 70 43 70 16 0 34 17 40 39 11 41 58 68 88 50 10
-6 18 2 18 17 0 124 86 52 109 -90 12 -73 42 -112 66 -88 6 7 2 32 -10 57 -37
77 -42 133 -13 157 33 27 37 78 8 78 -12 0 -30 24 -41 53 -11 29 -37 77 -59
106 l-38 54 70 34 c75 36 162 47 110 15 -38 -24 -13 -82 36 -82 21 0 57 23 79
51 39 49 44 50 120 25 79 -27 79 -27 29 -50 -40 -19 -48 -19 -39 3 7 18 -2 23
-27 17 -21 -6 -33 -21 -28 -34 5 -13 -14 -45 -41 -71 -28 -27 -51 -59 -51 -73
0 -13 -10 -28 -22 -32 -34 -11 1 -116 40 -116 65 0 94 -135 40 -192 -57 -61
-31 -62 50 -2 34 25 105 68 157 95 101 52 130 91 44 59 -96 -37 -121 -22 -49
27 120 81 164 87 148 20 -17 -73 -45 -107 -105 -130 -27 -10 -43 -23 -37 -30
26 -25 274 111 293 160 10 27 28 55 40 62 11 7 21 26 21 41 0 19 -16 13 -50
-18 -27 -26 -50 -56 -50 -69 0 -12 -18 -31 -40 -43 -52 -28 -53 8 -3 90 55 91
23 200 -53 181 -126 -31 -164 -35 -164 -15 0 12 18 27 40 34 85 27 44 52 -226
139 -52 17 -97 30 -100 29 -2 -2 -40 -10 -84 -19z m-130 -249 c21 -26 15 -30
-40 -30 -55 0 -61 4 -40 30 14 17 32 30 40 30 8 0 26 -13 40 -30z m-61 -83 c4
-4 -1 -17 -12 -28 -23 -23 -127 14 -127 46 0 16 118 2 139 -18z m521 -43 c0
-21 -43 -64 -64 -64 -9 0 -16 18 -16 40 0 27 13 40 40 40 22 0 40 -7 40 -16z
m-2121 -513 c-30 -31 -179 -98 -179 -82 0 18 149 111 179 111 26 0 26 -4 0
-29z m-1690 -648 c-38 -35 -156 -66 -130 -34 21 25 55 37 130 48 12 2 12 -3 0
-14z m651 -144 c-73 -56 -99 -46 -33 13 32 27 63 44 70 38 7 -7 -10 -30 -37
-51z m-1088 -150 c-6 -18 -3 -26 8 -19 23 14 26 -10 5 -42 -18 -26 -94 -68
-124 -68 -42 0 -20 61 29 80 28 11 49 26 48 35 -5 31 2 45 24 45 12 0 17 -14
10 -31z m-167 -164 c-19 -51 -44 -23 -36 40 12 90 13 92 30 35 8 -27 10 -61 6
-75z m155 5 c-14 -16 -17 -30 -7 -31 9 0 -1 -16 -24 -35 -23 -19 -47 -49 -54
-67 -6 -18 -38 -46 -70 -61 l-58 -29 12 71 c6 40 23 72 37 72 14 0 32 10 40
22 12 19 119 85 141 87 5 1 -3 -12 -17 -29z m-240 -220 c0 -60 -9 -110 -20
-110 -22 0 -28 185 -7 207 24 24 27 14 27 -97z m733 -325 c-27 -52 -54 -111
-60 -130 -21 -63 -53 -38 -40 30 10 53 114 195 142 195 4 0 -15 -43 -42 -95z
m-285 -210 c-21 -24 -54 -56 -73 -71 -19 -14 -35 -36 -35 -48 0 -12 18 -6 40
14 22 20 40 27 40 15 0 -32 -155 -197 -170 -182 -7 8 5 32 28 55 23 23 42 53
41 67 0 14 -32 -10 -70 -53 -38 -43 -69 -69 -69 -56 0 12 65 85 145 163 147
142 193 178 123 96z m-228 -105 c-37 -27 -76 -50 -86 -50 -11 0 -9 -12 3 -26
25 -30 -5 -74 -50 -74 -43 0 19 118 85 160 87 56 126 48 48 -10z m264 -213
c-35 -34 -64 -54 -64 -45 0 23 105 129 117 118 6 -6 -18 -38 -53 -73z m-189 3
c-14 -22 -39 -45 -56 -50 -18 -6 -53 -30 -78 -54 -26 -23 -43 -33 -39 -21 7
19 177 164 193 165 3 0 -6 -18 -20 -40z m-215 4 c0 -9 -11 -27 -25 -41 -20
-20 -20 -28 0 -40 19 -12 18 -24 -6 -54 -31 -38 -32 -38 -22 6 6 29 0 45 -18
45 -15 0 -29 -27 -33 -63 -4 -39 -24 -74 -54 -94 -47 -31 -48 -31 -24 12 13
25 32 45 43 45 10 0 19 14 19 31 0 17 -9 26 -20 19 -27 -17 -24 13 6 52 13 17
37 27 52 22 19 -6 24 1 16 22 -6 17 -1 36 12 41 37 15 54 14 54 -3z m-296
-130 c-43 -44 -64 -85 -64 -125 l1 -59 39 50 c22 28 39 60 40 73 0 23 60 82
60 59 0 -37 -104 -212 -120 -202 -10 6 -25 -13 -32 -43 -28 -108 -208 -236
-208 -147 0 11 8 20 17 20 9 0 33 38 54 85 20 47 57 114 83 149 25 35 46 70
46 79 0 23 105 127 128 127 11 0 -9 -30 -44 -66z m219 -134 c-25 -21 -40 -48
-33 -59 7 -12 -1 -16 -19 -9 -17 7 -31 2 -31 -10 0 -12 -11 -22 -25 -21 -14 0
10 32 53 70 43 38 84 69 90 68 7 0 -9 -18 -35 -39z m517 14 c0 -15 -13 -44
-30 -65 -28 -37 -29 -37 -21 11 4 28 9 57 10 65 2 26 41 16 41 -11z m9 -133
c12 -19 -21 -47 -64 -54 -32 -4 -32 18 -1 49 29 29 50 31 65 5z m-332 -96
c-28 -30 -57 -71 -63 -90 -12 -34 -54 -50 -54 -21 0 16 143 166 158 166 5 0
-13 -25 -41 -55z m67 -86 c-59 -54 -117 -99 -130 -98 -13 0 -3 16 23 35 26 19
80 63 120 98 115 102 105 75 -13 -35z m171 47 c-30 -30 -60 -48 -67 -40 -15
14 70 92 102 93 10 1 -5 -23 -35 -53z m-204 -384 c-13 -21 -171 -106 -171 -92
0 12 145 107 166 109 9 0 11 -7 5 -17z m-153 -268 c-209 -155 -362 -208 -451
-157 -36 21 -35 22 3 24 232 14 281 25 259 60 -6 11 2 19 18 19 17 0 44 14 61
31 18 17 40 26 50 20 11 -6 25 -2 33 10 7 12 18 17 24 10 7 -6 8 -14 3 -17z
m-28 -154 c-18 -29 -146 -80 -202 -80 -82 0 -52 35 42 49 49 7 94 22 101 32 6
11 25 19 41 19 17 0 25 -9 18 -20z m-497 -56 c20 -32 14 -36 -55 -36 -86 -1
-110 43 -33 58 25 5 50 10 55 11 6 2 20 -13 33 -33z m77 -104 c-15 -25 -250
-17 -250 8 0 14 45 20 130 15 72 -3 126 -14 120 -23z m80 -34 c-22 -6 -49 -18
-59 -28 -10 -10 -44 -18 -74 -18 -30 0 -60 -9 -67 -20 -7 -11 -21 -20 -32 -20
-11 0 -15 9 -8 20 7 11 3 20 -9 20 -11 0 -21 7 -21 16 0 9 38 14 85 12 47 -2
99 4 115 13 17 10 48 17 70 16 l40 -2 -40 -9z m-520 -166 c-7 -11 7 -18 34
-15 25 3 44 -5 42 -16 -2 -13 20 -18 55 -13 35 5 59 0 59 -14 0 -34 -145 -26
-198 11 -44 31 -49 30 -109 -30 -48 -49 -54 -63 -28 -63 19 0 35 9 35 20 0 11
10 20 22 20 28 0 -14 -54 -61 -80 -26 -13 -32 -8 -30 26 4 70 30 113 86 144
62 33 111 39 93 10z m519 -216 c-16 -4 -29 -14 -29 -23 0 -9 -35 -20 -78 -24
-43 -4 -74 -1 -69 8 5 8 27 15 48 15 22 0 39 10 39 22 0 14 -17 18 -45 9 -25
-7 -85 -17 -135 -22 l-90 -8 110 30 c61 16 139 24 175 18 55 -9 63 -6 52 25
-10 30 -7 30 19 -4 27 -34 27 -41 3 -46z m-595 -97 c14 -42 -53 -47 -75 -5
-20 36 -17 40 23 35 25 -4 48 -17 52 -30z m117 -45 c-6 -10 -35 -24 -66 -31
-30 -8 -71 -32 -91 -53 -36 -39 -106 -54 -84 -18 20 32 135 87 246 118 4 1 1
-6 -5 -16z"/>
<path d="M7590 11054 c-55 -54 -122 -108 -150 -118 -44 -18 -46 -22 -13 -34
34 -13 34 -16 -5 -63 -34 -41 -41 -43 -41 -14 -1 27 -13 33 -46 26 -25 -6 -85
-19 -135 -29 l-90 -19 69 58 c86 73 61 75 -67 7 -73 -39 -113 -48 -164 -39
-44 8 -88 2 -130 -20 -34 -18 -56 -23 -49 -11 22 37 -33 25 -61 -13 -39 -51
-34 -65 22 -65 28 0 50 -9 50 -20 0 -11 -10 -20 -21 -20 -12 0 -16 -9 -9 -20
15 -25 141 -14 136 12 -5 31 168 114 207 100 26 -10 28 -19 10 -37 -33 -33
-29 -55 12 -56 31 -1 31 -4 -5 -29 -116 -82 -124 -92 -65 -78 46 10 53 7 43
-20 -8 -22 -1 -32 22 -32 21 0 30 -11 24 -27 -22 -58 163 -222 206 -183 21 19
51 30 67 24 16 -6 47 2 71 19 37 26 42 26 42 -2 0 -47 95 -5 155 69 20 25 27
25 42 3 15 -22 28 -21 74 9 l56 37 -37 -59 c-21 -33 -55 -80 -77 -105 -61 -69
-28 -72 57 -5 83 66 103 72 115 36 10 -30 158 27 249 96 35 26 70 48 78 48 26
0 -102 -110 -157 -135 -30 -13 -55 -34 -55 -47 0 -29 92 -7 160 38 28 18 58
31 67 28 10 -3 30 5 46 18 61 51 43 0 -24 -69 -68 -70 -76 -113 -20 -113 15 0
25 12 24 26 -4 32 107 162 163 192 74 39 75 22 4 -41 -76 -67 -66 -68 34 -7
35 22 69 60 75 85 7 25 26 45 44 45 17 0 64 29 104 64 40 35 55 56 33 47 -22
-9 -59 -19 -82 -20 -23 -2 -84 -33 -136 -68 -100 -67 -120 -32 -35 63 24 28
26 40 7 51 -17 11 -9 29 28 61 74 64 38 96 -77 69 -77 -17 -86 -16 -86 17 0
20 6 36 13 36 8 0 9 18 4 41 -14 53 -137 104 -215 89 -52 -10 -56 -8 -23 12
33 20 21 30 -100 83 l-136 60 -97 -54 c-54 -30 -109 -50 -124 -44 -14 5 -52
-16 -82 -49 -31 -32 -45 -58 -32 -58 31 0 257 109 322 155 27 19 42 23 33 9
-17 -28 -177 -134 -190 -126 -4 3 -13 -2 -20 -11 -45 -61 -229 -108 -209 -54
19 50 119 165 203 232 51 40 59 54 32 52 -21 -2 -83 -48 -138 -103z m670 -183
c0 -14 -114 -71 -142 -71 -15 0 -10 16 12 40 31 35 130 58 130 31z m31 -126
c-6 -21 -36 -51 -66 -66 -30 -15 -73 -42 -95 -60 -22 -18 -58 -39 -80 -46 -28
-9 -23 1 20 37 33 28 58 63 54 79 -6 32 20 52 106 82 72 26 77 23 61 -26z"/>
<path d="M9025 10418 c-25 -9 -45 -30 -45 -46 0 -16 -10 -36 -23 -44 -16 -10
-20 -1 -12 28 12 48 -13 61 -92 45 -55 -11 -56 -12 -20 -43 91 -77 218 -132
244 -104 30 32 66 16 51 -22 -6 -16 13 -36 47 -50 31 -13 67 -48 79 -78 32
-76 113 -213 131 -221 8 -3 15 -20 15 -37 0 -16 12 -58 27 -93 28 -65 49 -142
105 -378 18 -74 39 -135 47 -135 8 0 85 -67 172 -149 124 -118 164 -145 191
-130 29 16 34 8 32 -50 -2 -83 -74 -122 -74 -40 0 43 -76 120 -97 99 -22 -23
86 -192 130 -203 26 -6 43 -18 38 -26 -5 -8 10 -36 34 -61 26 -29 46 -38 51
-23 12 37 44 27 44 -15 0 -21 14 -43 30 -49 17 -7 30 -29 30 -51 0 -21 24 -58
53 -81 61 -48 103 -55 67 -11 -15 19 -20 55 -11 100 12 65 9 70 -37 70 -28 0
-67 17 -86 37 -20 20 -52 42 -71 49 -41 15 -46 51 -10 65 29 11 34 297 8 404
-11 46 -7 83 16 128 35 71 24 187 -19 212 -14 8 -29 33 -33 55 -5 24 -22 38
-42 34 -24 -4 -31 4 -23 25 8 21 1 31 -22 31 -25 0 -32 11 -24 40 6 22 2 45
-8 51 -10 7 -31 40 -46 75 -59 142 -392 431 -392 342 0 -26 -6 -28 -28 -10
-22 18 -30 18 -38 -2 -6 -14 -6 6 0 44 9 65 3 75 -87 140 -122 88 -127 90
-127 52 0 -19 -17 -32 -40 -32 -22 0 -47 -1 -55 -1 -8 -1 -19 16 -25 37 -8 31
-19 36 -55 22z m505 -576 c-30 -30 -32 -27 -19 28 28 128 38 144 45 72 5 -44
-5 -79 -26 -100z m410 -376 c0 -63 -13 -98 -52 -140 l-53 -56 11 80 c11 84 31
180 47 229 16 53 46 -20 47 -113z m40 -212 c0 -66 -46 -154 -81 -154 -29 0
-22 43 13 82 18 20 27 47 21 62 -7 17 -15 10 -24 -19 -8 -25 -21 -45 -31 -45
-38 0 47 136 87 139 8 0 15 -28 15 -65z m60 -164 c0 -27 1 -57 2 -64 0 -8 -9
-18 -20 -22 -13 -4 -22 22 -22 64 0 40 9 72 20 72 11 0 20 -22 20 -50z"/>
<path d="M5630 8720 c-8 -47 -29 -89 -50 -100 -54 -29 -64 -25 -50 20 11 36 6
38 -54 26 -80 -15 -160 -101 -144 -152 9 -30 2 -36 -35 -31 -40 6 -47 -1 -45
-48 2 -44 -3 -51 -24 -33 -21 17 -31 14 -41 -15 -8 -20 -22 -42 -32 -49 -9 -6
-22 -69 -27 -140 -6 -70 -19 -154 -29 -186 -11 -32 -19 -108 -19 -170 0 -62
-9 -125 -20 -142 -20 -32 -12 321 10 422 7 30 4 59 -7 66 -10 6 -25 -38 -32
-100 -13 -99 -17 -107 -41 -75 -14 20 -22 44 -17 53 6 9 1 28 -12 42 -12 15
-23 69 -26 119 -4 99 -8 104 -55 73 -19 -13 -23 -26 -10 -35 11 -8 23 -55 27
-105 3 -49 15 -93 25 -97 31 -11 20 -83 -13 -83 -17 0 -27 7 -21 16 11 19 -31
173 -53 196 -37 37 -13 105 45 131 68 30 85 88 20 67 -41 -13 -50 13 -41 120
2 33 -1 35 -17 10 -11 -16 -16 -64 -11 -105 9 -75 -5 -93 -44 -54 -14 14 -19
6 -15 -25 2 -25 6 -46 8 -46 6 0 22 -122 26 -195 2 -41 11 -75 20 -75 24 0 -7
-183 -39 -229 -15 -22 -27 -74 -27 -115 0 -42 -9 -76 -20 -76 -11 0 -20 17
-20 39 0 21 -9 44 -20 51 -11 7 -20 -6 -20 -29 0 -22 -9 -41 -20 -41 -11 0
-20 17 -20 39 0 51 -34 70 -71 40 -23 -19 -24 -31 -6 -52 35 -43 6 -54 -40
-15 l-40 34 41 33 c47 38 8 92 -51 69 -40 -15 -40 -18 -5 -135 15 -51 21 -93
12 -93 -31 0 -92 140 -110 250 -4 22 -8 45 -9 50 -1 6 -16 -8 -32 -30 -27 -34
-33 -36 -52 -10 -18 26 -19 25 -10 -3 23 -72 -19 -51 -130 64 -137 144 -207
158 -207 41 1 -48 -18 -87 -65 -138 -36 -40 -65 -82 -65 -93 0 -32 -68 -85
-96 -76 -16 6 -24 -17 -24 -64 0 -72 -163 -448 -206 -474 -11 -8 -24 -34 -28
-60 -4 -25 -20 -53 -37 -63 -43 -24 -35 -54 14 -54 43 0 43 -1 5 -43 -34 -39
-34 -42 -3 -31 62 23 37 -26 -35 -69 -81 -48 -92 -66 -20 -33 74 33 85 4 18
-49 l-57 -45 69 -12 70 -11 -76 -34 c-41 -19 -70 -43 -64 -54 22 -34 -11 -63
-42 -38 -16 14 -28 16 -28 4 0 -22 57 -76 67 -63 3 4 26 37 51 73 44 64 117
92 96 37 -8 -21 7 -28 57 -28 38 0 64 8 58 18 -6 10 -29 18 -50 18 -107 0 -20
57 111 73 44 5 87 22 95 37 23 40 120 55 187 28 32 -14 64 -25 71 -26 8 -1 20
-9 29 -17 20 -21 132 -18 166 3 32 20 109 -6 172 -59 22 -19 50 -30 62 -26 13
5 28 -7 33 -27 6 -20 17 -52 25 -71 10 -24 5 -35 -16 -35 -20 0 -27 -13 -20
-40 8 -28 1 -40 -23 -40 -18 0 -28 -9 -21 -20 12 -19 -29 -30 -90 -23 -16 2
-63 7 -104 10 -41 4 -98 23 -126 41 -29 19 -69 29 -89 22 -21 -6 -104 3 -185
20 -80 18 -189 42 -242 53 -53 12 -102 16 -109 9 -6 -7 3 -12 22 -12 46 0 41
-35 -7 -50 -22 -7 -40 -21 -40 -31 0 -11 -13 -19 -30 -19 -16 0 -30 8 -30 18
0 15 -73 42 -140 51 -5 1 -22 9 -36 18 -15 9 -38 7 -53 -6 -49 -41 -157 -63
-175 -36 -11 18 -15 15 -16 -10 0 -26 -17 -35 -65 -35 -83 -1 -120 -24 -103
-67 10 -26 4 -30 -23 -20 -24 10 -31 6 -21 -10 8 -12 4 -23 -8 -23 -39 0 -99
-167 -150 -420 -15 -71 -36 -175 -48 -230 -12 -55 -32 -149 -45 -210 -13 -60
-23 -217 -23 -347 1 -130 -5 -227 -12 -216 -41 66 -129 -35 -173 -197 -8 -27
-32 -90 -53 -138 -35 -78 -38 -113 -26 -303 l14 -215 -52 -34 c-28 -19 -46
-43 -40 -53 7 -11 28 -5 50 15 36 32 38 32 39 -4 0 -21 13 -55 30 -77 38 -50
37 -66 -6 -76 -31 -8 -31 -11 5 -25 37 -15 133 -89 245 -189 36 -31 45 -61 46
-145 0 -58 13 -139 27 -180 23 -63 22 -77 -5 -105 -29 -28 -28 -31 5 -31 35 0
37 -14 12 -110 -13 -51 3 -110 29 -110 18 0 25 -12 18 -30 -7 -20 1 -31 26
-32 21 0 26 -6 12 -11 -14 -6 -25 -18 -25 -28 0 -10 13 -13 29 -6 38 14 91
-38 91 -90 0 -22 16 -46 36 -52 37 -12 124 -146 124 -191 0 -14 23 -46 50 -72
28 -25 50 -67 50 -92 1 -66 22 -136 42 -136 9 0 12 29 5 65 -8 42 -5 58 7 45
11 -11 118 -128 238 -259 l218 -239 13 -181 c7 -100 14 -247 15 -327 l2 -145
-85 -40 c-123 -58 -228 -125 -291 -186 -36 -34 -108 -67 -201 -91 -80 -21
-161 -51 -179 -68 -19 -16 -65 -45 -104 -64 -38 -20 -99 -61 -135 -92 -35 -31
-161 -102 -280 -159 -118 -56 -307 -148 -420 -205 l-206 -104 575 -5 c678 -7
625 -17 604 119 -10 60 -9 133 1 166 16 55 18 52 19 -38 3 -144 40 -252 87
-252 41 0 36 121 -7 204 -23 43 -23 257 0 293 10 17 18 -28 20 -117 1 -79 11
-159 20 -177 10 -18 24 -71 31 -118 l15 -85 220 0 c219 0 221 0 207 45 -7 25
-27 99 -43 165 -17 66 -37 134 -45 150 -26 51 -28 380 -3 410 13 16 18 37 12
47 -10 16 147 163 174 163 40 0 23 -77 -34 -160 -107 -156 -111 -265 -22 -590
18 -66 38 -145 44 -175 l11 -55 2702 5 2703 5 34 68 c19 38 45 75 58 83 13 8
18 29 12 46 -8 19 -3 27 12 22 29 -11 77 101 61 142 -6 16 1 29 16 30 37 1
105 112 138 226 15 51 34 93 41 93 8 0 19 31 27 69 7 38 21 75 31 81 22 14 3
-109 -21 -140 -9 -11 -27 -65 -41 -120 -14 -55 -45 -131 -69 -170 -25 -38 -57
-105 -72 -147 -15 -43 -49 -97 -77 -122 -92 -80 -128 -171 -69 -171 27 0 49 9
49 20 0 11 10 20 21 20 12 0 16 -9 9 -20 -18 -29 57 -25 89 5 21 20 28 20 35
0 7 -20 271 -25 1229 -25 671 0 1215 8 1209 17 -11 17 -212 88 -313 111 -29 6
-83 32 -121 58 -37 25 -125 64 -195 85 -70 21 -148 59 -175 83 -27 25 -85 54
-130 67 -198 53 -400 177 -557 344 -76 81 -251 155 -366 155 -107 0 -212 38
-288 106 -114 100 -307 146 -387 94 -25 -17 -23 -22 14 -32 70 -19 85 -209 26
-327 -9 -17 -48 -98 -87 -181 -39 -82 -103 -199 -142 -260 -39 -60 -90 -139
-113 -175 -23 -36 -51 -65 -61 -65 -22 0 -16 11 77 148 179 262 282 581 217
670 -12 16 -22 47 -23 70 -8 120 9 112 -223 112 -383 0 -483 210 -518 1090
-11 285 -10 292 139 650 39 94 98 242 131 330 57 153 61 158 81 106 44 -117
321 -179 489 -108 75 31 259 207 301 288 15 30 59 87 97 127 108 115 301 537
245 537 -28 0 -150 -83 -150 -102 0 -10 -20 -18 -45 -18 -25 -1 -66 -23 -93
-51 -26 -28 -53 -45 -60 -38 -6 7 13 32 43 57 110 87 -87 136 -203 50 -55 -40
-59 -41 -110 -7 -59 38 -142 18 -165 -41 -12 -32 -78 -41 -95 -14 -5 9 0 79
12 156 22 143 1 236 -76 328 -14 17 -29 102 -34 190 -17 288 -68 624 -101 672
-18 26 -33 63 -33 82 0 20 -9 37 -20 39 -11 1 -29 3 -40 5 -21 2 -80 102 -80
134 0 10 -26 71 -58 136 -37 78 -50 126 -38 138 21 21 1 30 -119 54 -36 7 -65
21 -65 30 0 10 -18 23 -40 30 -49 16 -53 50 -5 50 19 0 -16 27 -79 60 -83 44
-138 59 -200 56 -47 -2 -102 4 -121 12 -28 13 -33 9 -23 -16 14 -38 -13 -41
-112 -12 -39 12 -150 29 -248 39 -98 11 -184 27 -190 36 -33 49 -235 107 -293
84 -33 -12 -96 -25 -140 -28 -45 -3 -99 -16 -120 -27 -22 -12 -81 -33 -132
-46 -81 -22 -92 -31 -85 -72 6 -29 -1 -46 -18 -46 -44 0 -31 -60 14 -70 98
-21 255 -35 442 -39 285 -7 511 -46 563 -97 7 -8 29 -14 47 -14 36 0 107 -70
126 -125 7 -19 28 -35 46 -35 25 0 28 -6 11 -26 -16 -20 -16 -33 1 -50 57 -57
-43 -79 -386 -87 -223 -5 -343 -16 -362 -32 -23 -19 -45 -20 -93 -3 -35 12
-76 17 -91 11 -16 -5 -44 7 -63 28 -19 21 -41 34 -49 29 -36 -22 -120 104
-123 186 -2 46 -5 84 -7 84 -5 0 -193 -100 -220 -116 -11 -7 -33 -13 -50 -13
-60 -2 -45 -71 21 -98 l64 -27 -88 -13 c-48 -8 -120 -19 -160 -25 -129 -21
-120 45 28 205 54 58 70 87 49 87 -18 0 -37 -9 -44 -20 -7 -11 -46 -39 -86
-61 -228 -124 -233 -129 -244 -225 -11 -104 -29 -100 -128 31 -72 95 -66 261
12 320 49 37 143 116 254 214 64 56 66 63 42 120 -13 33 -20 73 -13 89 6 16 2
32 -10 36 -41 14 29 114 101 144 39 16 61 30 47 31 -46 2 -25 37 35 58 36 13
64 13 71 2 6 -11 20 -19 31 -19 11 0 15 9 8 20 -7 11 1 20 17 20 16 0 34 13
40 30 9 22 23 25 59 11 71 -26 316 8 339 48 9 17 27 26 38 19 36 -22 12 119
-28 164 -20 24 -34 51 -31 60 6 20 -53 117 -107 178 -20 22 -95 103 -167 180
-73 77 -145 165 -161 195 -17 30 -43 55 -60 55 -19 0 -29 20 -29 59 0 32 -10
65 -21 72 -31 19 -48 -5 -27 -36 10 -15 -2 -4 -27 24 -24 28 -40 65 -35 81 5
17 -4 56 -20 87 -17 32 -30 69 -30 83 0 14 -15 37 -33 53 -30 25 -32 20 -18
-53 8 -44 24 -86 35 -93 12 -7 16 -25 10 -40 -6 -16 -25 7 -47 58 -44 102 -62
106 -73 20 -7 -53 -9 -50 -7 15 2 48 12 78 26 76 14 -3 19 11 13 35 -6 21 -20
39 -31 39 -13 0 -13 9 0 25 11 14 15 59 10 100 -12 94 -61 103 -51 10 5 -51 3
-56 -11 -25 -10 22 -17 99 -17 170 l0 130 20 -85 c11 -47 28 -85 39 -85 11 0
14 13 8 29 -33 86 -35 165 -5 190 27 22 32 20 32 -17 0 -23 9 -42 20 -42 11 0
20 -13 20 -30 0 -16 10 -30 22 -30 13 0 17 14 8 35 -8 19 -35 105 -60 191 -57
195 -79 218 -64 70 8 -85 4 -120 -18 -137 -32 -27 -37 8 -31 197 2 72 -4 102
-18 93 -12 -7 -17 -26 -11 -41 6 -15 3 -28 -7 -28 -10 0 -22 20 -27 45 -5 25
-6 -18 -1 -95 5 -77 14 -162 19 -190 7 -39 5 -43 -11 -20 -11 17 -21 50 -21
74 0 24 -9 49 -20 56 -11 7 -20 -10 -20 -39 0 -28 -10 -51 -21 -51 -14 0 -17
31 -10 85 25 188 28 255 12 255 -10 0 -24 -36 -31 -80z m-649 -840 c11 0 19
-34 18 -75 l-1 -75 -29 67 c-16 37 -28 87 -27 110 2 34 5 36 12 8 5 -19 17
-35 27 -35z m459 43 c0 -27 -140 -203 -161 -203 -36 0 -19 34 65 127 87 97 96
104 96 76z m-1208 -1898 c144 -82 190 -117 197 -155 5 -22 14 -65 20 -95 17
-78 -79 -72 -150 10 l-50 58 -47 -83 c-25 -45 -41 -88 -35 -94 14 -14 115 -17
143 -5 11 5 24 0 28 -11 4 -11 20 -29 36 -40 19 -14 -13 -18 -104 -13 -71 3
-130 14 -130 23 0 10 -48 17 -107 17 -207 0 -292 66 -322 248 -15 86 -18 88
-68 40 -20 -19 -66 -51 -101 -70 -36 -19 -59 -44 -52 -55 7 -11 -2 -14 -22 -7
-23 9 -31 5 -24 -15 6 -15 24 -26 42 -22 17 3 37 -5 45 -18 14 -23 -125 -15
-277 15 l-56 11 70 68 c38 37 79 68 90 68 12 0 72 23 134 50 62 28 134 50 160
50 27 0 48 8 48 18 0 9 -56 13 -125 8 -90 -6 -117 -2 -95 13 56 38 680 27 752
-14z m1947 -1882 c23 -57 12 -154 -21 -174 -10 -6 -18 23 -18 65 0 42 -6 96
-13 121 -17 65 24 55 52 -12z m-1570 -186 c74 -34 63 -49 -29 -40 -51 4 -80
17 -80 35 0 34 41 36 109 5z m1239 -81 c39 -28 87 -40 150 -39 65 1 83 -4 62
-17 -16 -11 -41 -20 -54 -20 -42 0 -206 -109 -206 -136 0 -15 -8 -22 -17 -16
-10 6 -69 -2 -131 -18 -114 -30 -381 -41 -440 -18 -39 15 -42 48 -4 48 15 0
58 34 96 75 124 134 174 171 251 185 107 21 226 3 293 -44z m-2254 -407 c-73
-64 -115 -64 -54 1 26 28 61 50 78 49 23 0 16 -15 -24 -50z m3526 -209 c0 -26
-101 -26 -140 0 -22 14 -7 19 55 20 47 0 85 -9 85 -20z m-2730 -59 c44 -9 62
-18 40 -19 -22 -2 -82 -24 -132 -49 l-93 -45 33 -69 c17 -37 61 -86 96 -109
153 -96 95 -115 -63 -20 -64 39 -127 70 -141 70 -13 0 -46 17 -72 37 -27 21
-67 44 -91 51 -23 7 -66 35 -94 61 -28 26 -67 51 -86 54 -18 4 -37 18 -42 32
-10 29 509 34 645 6z m439 -63 c24 -23 -106 -1 -149 26 -20 12 -2 14 50 6 44
-7 89 -22 99 -32z m1511 -44 c138 2 293 5 345 8 181 10 131 -72 -92 -149 -79
-27 -194 -68 -256 -91 -195 -71 -280 -85 -257 -41 80 149 -4 262 -147 197 -42
-19 -57 -16 -95 20 -54 50 -94 52 -191 12 -58 -24 -77 -25 -107 -4 -35 24
-174 27 -317 6 -36 -5 -81 -4 -100 4 -71 28 283 54 617 44 193 -5 463 -8 600
-6z m-1736 -292 c7 -57 -21 -70 -71 -33 -35 27 -35 29 0 66 42 45 63 35 71
-33z m1368 -47 c-71 -47 -183 -6 -122 45 17 14 30 38 30 54 0 18 20 9 57 -28
39 -37 50 -61 35 -71z m-192 -13 c0 -33 -63 -42 -101 -15 -36 24 -33 27 31 29
39 2 70 -5 70 -14z m203 -1677 c-17 -31 -10 -34 69 -28 48 4 88 15 88 26 0 24
105 13 124 -12 20 -28 200 -17 219 13 17 29 21 25 52 -48 15 -34 16 -59 4 -66
-10 -7 -19 -21 -19 -31 0 -21 71 -15 93 7 41 41 44 4 5 -61 -61 -103 -65 -107
-120 -110 -55 -2 -122 -52 -106 -77 5 -10 -5 -12 -23 -5 -18 7 -39 5 -46 -5
-27 -39 -117 -61 -223 -55 -60 3 -186 9 -280 14 -212 11 -672 88 -742 124 -29
15 -58 23 -63 17 -15 -15 -219 53 -257 85 -17 15 -39 27 -50 27 -10 1 -39 17
-65 37 l-48 37 63 -9 c39 -6 62 -1 62 13 0 27 252 22 296 -6 14 -8 93 -17 175
-18 82 -1 149 -10 149 -20 0 -10 24 -11 55 -3 30 9 93 14 139 12 63 -3 95 6
126 37 23 23 49 37 59 31 9 -6 22 3 29 21 8 21 33 29 78 25 38 -3 86 9 114 29
61 43 66 42 43 -1z m3477 -360 c-37 -122 -67 -196 -86 -215 -13 -13 -16 -10
-10 10 6 17 27 82 47 145 20 63 43 115 51 115 8 0 8 -25 -2 -55z m272 -107
c-25 -158 -232 -552 -276 -526 -27 17 -18 48 14 48 18 0 30 19 30 48 0 26 27
99 60 162 33 63 60 127 60 142 0 15 7 28 16 28 8 0 33 40 55 90 49 111 58 113
41 8z m-6812 22 c0 -11 -11 -20 -25 -20 -14 0 -52 -23 -85 -50 -62 -52 -190
-116 -204 -103 -12 12 244 171 309 191 3 1 5 -7 5 -18z m307 -200 c8 -100 6
-135 -6 -106 -28 66 -50 300 -26 276 11 -11 26 -87 32 -170z m6100 -35 c-63
-151 -207 -372 -207 -319 0 21 41 101 59 114 7 6 47 71 88 145 83 150 107 174
60 60z m-7067 -163 c0 -24 -188 -102 -244 -101 -34 1 -26 9 34 32 44 16 107
42 140 57 75 34 70 33 70 12z m1060 -187 c0 -8 -7 -15 -15 -15 -21 0 -65 145
-51 167 10 16 65 -112 66 -152z"/>
<path d="M10381 8384 c-24 -26 -24 -38 5 -89 19 -32 30 -65 25 -73 -4 -8 20
-50 55 -95 109 -137 254 -292 254 -272 0 40 -60 163 -160 324 -153 250 -145
241 -179 205z"/>
<path d="M10460 7222 c0 -13 15 -53 33 -88 49 -95 52 -238 4 -223 -46 15 -46
13 4 -104 23 -52 36 -115 30 -139 -7 -29 26 -117 98 -262 59 -119 114 -242
122 -272 7 -30 31 -67 52 -82 22 -15 33 -39 26 -57 -10 -28 39 -155 60 -155 4
0 8 40 8 89 0 49 5 98 11 108 6 10 -2 30 -18 43 -21 17 -30 18 -30 2 0 -45
-36 -20 -46 33 -12 65 0 85 29 44 14 -21 16 -6 7 51 l-14 79 42 -37 c42 -38
42 -38 42 34 0 39 9 77 20 84 25 16 26 150 1 150 -10 0 -24 -9 -31 -20 -32
-52 -123 80 -159 230 -19 82 -114 267 -203 394 -91 131 -88 128 -88 98z m310
-856 c36 -85 33 -164 -3 -96 -24 45 -51 170 -37 170 5 0 23 -33 40 -74z"/>
<path d="M1483 6088 c-24 -17 -39 -38 -33 -48 14 -22 -9 -36 -85 -49 -48 -9
-64 -3 -71 24 -6 21 -10 13 -12 -21 -1 -31 6 -51 17 -45 10 6 24 2 31 -9 7
-11 0 -25 -16 -31 -35 -14 -21 -109 17 -109 14 0 68 18 119 40 51 22 110 40
130 40 21 0 44 11 52 23 10 17 3 19 -24 9 -68 -28 -287 -37 -228 -10 48 21 48
23 10 40 -33 15 -30 17 18 11 32 -5 88 4 125 19 79 33 89 54 17 36 -58 -14
-69 24 -17 62 50 36 1 54 -50 18z"/>
<path d="M1740 5930 c-113 -66 -264 -130 -307 -130 -54 0 -133 -83 -133 -140
0 -47 31 -53 47 -10 7 17 23 28 37 25 13 -3 25 6 25 20 1 32 60 71 174 114 51
19 123 61 160 92 74 63 73 74 -3 29z"/>
</g>
</svg>
